<?xml version="1.0" encoding="iso-8859-1"?>
<!-- Generator: Adobe Illustrator 16.0.0, SVG Export Plug-In . SVG Version: 6.00 Build 0)  -->
<!DOCTYPE svg PUBLIC "-//W3C//DTD SVG 1.1//EN" "http://www.w3.org/Graphics/SVG/1.1/DTD/svg11.dtd">
<svg version="1.1" id="Capa_1" xmlns="http://www.w3.org/2000/svg" xmlns:xlink="http://www.w3.org/1999/xlink" x="0px" y="0px"
	 width="479.41px" height="479.41px" viewBox="0 0 479.41 479.41" style="enable-background:new 0 0 479.41 479.41;"
	 xml:space="preserve">
<g>
	<path d="M239.708,0C168.21,0,110.041,58.168,110.041,129.63c0,0.907,0,149.411,0,150.213c0,65.843,49.339,120.341,112.985,128.555
		v37.564h-46.269c-9.238,0-16.726,7.487-16.726,16.722c0,9.238,7.488,16.727,16.726,16.727H302.74
		c9.231,0,16.723-7.488,16.723-16.727c0-9.234-7.49-16.722-16.723-16.722h-46.273v-37.576
		c63.605-8.25,112.902-62.731,112.902-128.542c0-0.75,0-149.436,0-150.179C369.37,58.168,311.203,0,239.708,0z M336.159,279.648
		c0,0.076-0.007,0.151-0.007,0.228v0.834h-0.021c-0.578,52.565-43.727,95.349-96.424,95.349c-53.057,0-96.218-43.162-96.218-96.216
		c0-0.188-0.108-32.009-0.178-53.52h13.375v51.848c0,45.796,37.259,83.056,83.064,83.056c45.797,0,83.052-37.26,83.052-83.056
		v-51.848h13.35h0.072C336.162,247.064,336.159,279.543,336.159,279.648z M190.132,278.172v-51.848h99.227v51.848
		c0,27.354-22.255,49.611-49.607,49.611C212.393,327.783,190.132,305.525,190.132,278.172z M322.804,192.875V142.15
		c0-45.799-37.255-83.059-83.052-83.059c-45.805,0-83.064,37.259-83.064,83.059v50.725h-13.41
		c0.067-19.707,0.213-62.994,0.213-63.21c0-53.051,43.161-96.218,96.218-96.218c53.053,0,96.218,43.167,96.218,96.218
		c0,0.105,0,0.204,0.002,0.307c0.046,4.286,0.308,42.98,0.318,62.903H322.804z"/>
</g>
<g>
</g>
<g>
</g>
<g>
</g>
<g>
</g>
<g>
</g>
<g>
</g>
<g>
</g>
<g>
</g>
<g>
</g>
<g>
</g>
<g>
</g>
<g>
</g>
<g>
</g>
<g>
</g>
<g>
</g>
</svg>
